PathFileType	4	(X/Y/Z)	output.trc
DataRate	CameraRate	NumFrames	NumMarkers	Units	OrigDataRate	OrigDataStartFrame	OrigNumFrames
100	100	15	23	m	100	3020	6039
Frame#	Time	C7			T8			EL			EM			US			RS			AA			Fore_Clus_1			Fore_Clus_2			Fore_Clus_3			Fore_Clus_4			Hum_Clus_1			Hum_Clus_2			Hum_Clus_3			Hum_Clus_4			Thor_Clus_1			Thor_Clus_2			Thor_Clus_3			Thor_Clus_4			IJ			PX			GH			Thor_Clus_5		
		X1	Y1	Z1	X2	Y2	Z2	X3	Y3	Z3	X4	Y4	Z4	X5	Y5	Z5	X6	Y6	Z6	X7	Y7	Z7	X8	Y8	Z8	X9	Y9	Z9	X10	Y10	Z10	X11	Y11	Z11	X12	Y12	Z12	X13	Y13	Z13	X14	Y14	Z14	X15	Y15	Z15	X16	Y16	Z16	X17	Y17	Z17	X18	Y18	Z18	X19	Y19	Z19	X20	Y20	Z20	X21	Y21	Z21	X22	Y22	Z22	X23	Y23	Z23
3019	30.190000	-0.033794	1.443794	-0.066775	-0.027899	1.217138	-0.053482	-0.207651	1.096697	0.114441	-0.183288	1.065095	0.059979	-0.104451	1.122412	0.317565	-0.088159	1.161533	0.294254	-0.158048	1.359029	0.062534	-0.158703	1.129631	0.289326	-0.130286	1.141528	0.334575	-0.120854	1.164838	0.322061	-0.142903	1.166549	0.269167	-0.189451	1.204527	0.152327	-0.232161	1.218418	0.111982	-0.225453	1.281668	0.110663	-0.176969	1.277256	0.143747	0.094245	1.337589	0.057920	0.056691	1.292293	0.118270	0.056632	1.337115	0.081893	0.110932	1.292500	0.083304	0.027251	1.365531	0.013225	0.067517	1.161318	0.095571	-0.127647	1.345490	0.059942	0.049032	1.312189	0.107045
3020	30.200000	-0.033754	1.443787	-0.066801	-0.027814	1.217134	-0.053486	-0.207581	1.096686	0.114481	-0.183221	1.065075	0.060023	-0.104366	1.122460	0.317594	-0.088081	1.161577	0.294272	-0.158022	1.359008	0.062486	-0.158631	1.129680	0.289341	-0.130193	1.141584	0.334605	-0.120768	1.164890	0.322076	-0.142812	1.166583	0.269184	-0.189388	1.204531	0.152340	-0.232099	1.218395	0.112006	-0.225402	1.281650	0.110675	-0.176897	1.277251	0.143743	0.094295	1.337643	0.057960	0.056739	1.292330	0.118277	0.056714	1.337152	0.081896	0.110979	1.292554	0.083330	0.027288	1.365545	0.013221	0.067578	1.161347	0.095595	-0.127609	1.345476	0.059926	0.049056	1.312204	0.107040
3021	30.210000	-0.033708	1.443784	-0.066826	-0.027730	1.217132	-0.053492	-0.207520	1.096674	0.114511	-0.183163	1.065056	0.060056	-0.104284	1.122492	0.317612	-0.088005	1.161605	0.294278	-0.157991	1.358992	0.062438	-0.158565	1.129699	0.289370	-0.130120	1.141608	0.334618	-0.120706	1.164917	0.322090	-0.142736	1.166604	0.269192	-0.189330	1.204513	0.152350	-0.232046	1.218380	0.112023	-0.225352	1.281628	0.110686	-0.176843	1.277244	0.143739	0.094301	1.337665	0.057956	0.056747	1.292350	0.118288	0.056707	1.337173	0.081899	0.111004	1.292593	0.083372	0.027330	1.365559	0.013217	0.067636	1.161375	0.095616	-0.127568	1.345460	0.059908	0.049086	1.312219	0.107041
3022	30.220000	-0.033653	1.443789	-0.066847	-0.027645	1.217139	-0.053506	-0.207461	1.096661	0.114527	-0.183105	1.065038	0.060074	-0.104214	1.122506	0.317620	-0.087937	1.161616	0.294279	-0.157958	1.358981	0.062386	-0.158461	1.129702	0.289382	-0.130034	1.141628	0.334621	-0.120636	1.164930	0.322089	-0.142675	1.166617	0.269195	-0.189270	1.204522	0.152354	-0.231994	1.218371	0.112024	-0.225298	1.281621	0.110674	-0.176786	1.277249	0.143738	0.094333	1.337680	0.057968	0.056771	1.292381	0.118302	0.056749	1.337190	0.081899	0.111047	1.292646	0.083386	0.027375	1.365575	0.013214	0.067691	1.161399	0.095628	-0.127528	1.345446	0.059889	0.049096	1.312241	0.107037
3023	30.230000	-0.033594	1.443797	-0.066867	-0.027562	1.217147	-0.053522	-0.207407	1.096648	0.114532	-0.183051	1.065022	0.060081	-0.104150	1.122505	0.317617	-0.087873	1.161610	0.294270	-0.157921	1.358976	0.062337	-0.158401	1.129708	0.289386	-0.129983	1.141624	0.334627	-0.120570	1.164928	0.322087	-0.142608	1.166615	0.269192	-0.189223	1.204519	0.152341	-0.231949	1.218361	0.112022	-0.225262	1.281610	0.110664	-0.176750	1.277249	0.143728	0.094393	1.337724	0.057994	0.056805	1.292413	0.118319	0.056771	1.337219	0.081911	0.111096	1.292675	0.083408	0.027423	1.365591	0.013210	0.067742	1.161421	0.095637	-0.127487	1.345432	0.059868	0.049131	1.312265	0.107047
3024	30.240000	-0.033531	1.443807	-0.066885	-0.027483	1.217158	-0.053539	-0.207358	1.096636	0.114523	-0.183001	1.065007	0.060074	-0.104094	1.122487	0.317603	-0.087816	1.161590	0.294253	-0.157881	1.358976	0.062289	-0.158341	1.129691	0.289380	-0.129918	1.141602	0.334608	-0.120517	1.164913	0.322067	-0.142545	1.166599	0.269186	-0.189191	1.204519	0.152323	-0.231917	1.218351	0.112000	-0.225220	1.281606	0.110637	-0.176714	1.277254	0.143699	0.094402	1.337733	0.057977	0.056841	1.292431	0.118311	0.056807	1.337230	0.081896	0.111143	1.292693	0.083416	0.027474	1.365606	0.013206	0.067791	1.161440	0.095642	-0.127447	1.345419	0.059845	0.049164	1.312285	0.107040
3025	30.250000	-0.033464	1.443821	-0.066901	-0.027409	1.217173	-0.053559	-0.207310	1.096624	0.114500	-0.182948	1.064994	0.060053	-0.104049	1.122453	0.317580	-0.087767	1.161555	0.294231	-0.157839	1.358981	0.062243	-0.158288	1.129665	0.289353	-0.129876	1.141577	0.334589	-0.120465	1.164878	0.322054	-0.142492	1.166575	0.269174	-0.189148	1.204508	0.152302	-0.231876	1.218336	0.111961	-0.225202	1.281592	0.110604	-0.176674	1.277245	0.143666	0.094464	1.337748	0.057995	0.056871	1.292426	0.118302	0.056853	1.337245	0.081898	0.111173	1.292694	0.083418	0.027527	1.365622	0.013202	0.067835	1.161455	0.095642	-0.127409	1.345409	0.059819	0.049205	1.312294	0.107042
3026	30.260000	-0.033397	1.443833	-0.066917	-0.027341	1.217185	-0.053576	-0.207269	1.096612	0.114466	-0.182901	1.064983	0.060021	-0.104009	1.122407	0.317546	-0.087723	1.161509	0.294199	-0.157795	1.358990	0.062203	-0.158235	1.129624	0.289321	-0.129827	1.141548	0.334573	-0.120414	1.164836	0.322014	-0.142451	1.166537	0.269153	-0.189134	1.204506	0.152260	-0.231849	1.218331	0.111912	-0.225173	1.281590	0.110549	-0.176660	1.277242	0.143631	0.094485	1.337750	0.057987	0.056916	1.292445	0.118293	0.056894	1.337266	0.081907	0.111207	1.292714	0.083410	0.027580	1.365634	0.013196	0.067876	1.161467	0.095642	-0.127372	1.345400	0.059790	0.049239	1.312305	0.107034
3027	30.270000	-0.033329	1.443848	-0.066932	-0.027278	1.217199	-0.053595	-0.207228	1.096601	0.114418	-0.182850	1.064974	0.059977	-0.103980	1.122349	0.317504	-0.087688	1.161452	0.294164	-0.157750	1.359004	0.062165	-0.158210	1.129571	0.289285	-0.129807	1.141490	0.334533	-0.120382	1.164771	0.321992	-0.142423	1.166485	0.269117	-0.189104	1.204488	0.152219	-0.231816	1.218325	0.111862	-0.225140	1.281577	0.110499	-0.176625	1.277225	0.143588	0.094568	1.337787	0.058018	0.056922	1.292451	0.118313	0.056940	1.337257	0.081902	0.111267	1.292725	0.083425	0.027633	1.365646	0.013191	0.067912	1.161476	0.095638	-0.127340	1.345395	0.059758	0.049291	1.312317	0.107047
3028	30.280000	-0.033262	1.443861	-0.066946	-0.027222	1.217212	-0.053611	-0.207192	1.096591	0.114360	-0.182801	1.064968	0.059923	-0.103958	1.122283	0.317453	-0.087659	1.161387	0.294121	-0.157705	1.359020	0.062131	-0.158197	1.129513	0.289242	-0.129785	1.141433	0.334477	-0.120369	1.164713	0.321943	-0.142396	1.166432	0.269079	-0.189086	1.204468	0.152145	-0.231789	1.218311	0.111795	-0.225113	1.281566	0.110430	-0.176635	1.277183	0.143537	0.094580	1.337756	0.057982	0.056979	1.292452	0.118304	0.056974	1.337272	0.081879	0.111312	1.292731	0.083421	0.027686	1.365655	0.013184	0.067944	1.161483	0.095636	-0.127311	1.345393	0.059721	0.049336	1.312324	0.107047
3029	30.290000	-0.033196	1.443872	-0.066961	-0.027173	1.217222	-0.053625	-0.207161	1.096584	0.114292	-0.182753	1.064963	0.059861	-0.103943	1.122210	0.317395	-0.087637	1.161318	0.294073	-0.157661	1.359039	0.062101	-0.158196	1.129455	0.289182	-0.129783	1.141359	0.334429	-0.120359	1.164628	0.321891	-0.142401	1.166372	0.269041	-0.189075	1.204461	0.152094	-0.231757	1.218292	0.111717	-0.225087	1.281553	0.110363	-0.176641	1.277149	0.143489	0.094668	1.337786	0.058003	0.057002	1.292456	0.118301	0.057027	1.337264	0.081907	0.111346	1.292725	0.083422	0.027736	1.365663	0.013177	0.067971	1.161488	0.095633	-0.127285	1.345392	0.059679	0.049384	1.312317	0.107053
3030	30.300000	-0.033132	1.443885	-0.066975	-0.027129	1.217234	-0.053640	-0.207131	1.096578	0.114215	-0.182704	1.064961	0.059791	-0.103938	1.122134	0.317331	-0.087624	1.161246	0.294022	-0.157619	1.359061	0.062072	-0.158172	1.129370	0.289109	-0.129790	1.141288	0.334372	-0.120283	1.164506	0.321802	-0.142375	1.166320	0.268983	-0.189059	1.204448	0.152020	-0.231723	1.218278	0.111637	-0.225070	1.281548	0.110300	-0.176624	1.277138	0.143439	0.094692	1.337786	0.057989	0.057031	1.292458	0.118300	0.057064	1.337272	0.081897	0.111385	1.292730	0.083422	0.027785	1.365670	0.013170	0.067993	1.161491	0.095630	-0.127265	1.345397	0.059634	0.049423	1.312316	0.107038
3031	30.310000	-0.033070	1.443892	-0.066991	-0.027091	1.217242	-0.053649	-0.207111	1.096574	0.114133	-0.182661	1.064961	0.059716	-0.103937	1.122058	0.317261	-0.087616	1.161175	0.293965	-0.157578	1.359084	0.062047	-0.158177	1.129300	0.289031	-0.129800	1.141185	0.334274	-0.120289	1.164429	0.321751	-0.142381	1.166257	0.268958	-0.189059	1.204447	0.151970	-0.231704	1.218271	0.111551	-0.225045	1.281539	0.110227	-0.176628	1.277121	0.143386	0.094756	1.337789	0.058013	0.057064	1.292455	0.118303	0.057118	1.337280	0.081903	0.111405	1.292722	0.083440	0.027831	1.365673	0.013161	0.068011	1.161493	0.095630	-0.127248	1.345401	0.059584	0.049447	1.312309	0.107025
3032	30.320000	-0.033010	1.443902	-0.067006	-0.027056	1.217251	-0.053661	-0.207092	1.096574	0.114045	-0.182618	1.064964	0.059637	-0.103944	1.121982	0.317189	-0.087616	1.161105	0.293907	-0.157540	1.359110	0.062020	-0.158188	1.129234	0.288952	-0.129809	1.141108	0.334209	-0.120296	1.164356	0.321700	-0.142382	1.166211	0.268875	-0.189049	1.204431	0.151893	-0.231686	1.218263	0.111465	-0.225034	1.281541	0.110155	-0.176632	1.277117	0.143320	0.094803	1.337791	0.058003	0.057073	1.292462	0.118303	0.057138	1.337267	0.081891	0.111427	1.292718	0.083440	0.027875	1.365678	0.013153	0.068025	1.161494	0.095629	-0.127236	1.345411	0.059531	0.049501	1.312271	0.106938
3033	30.330000	-0.032951	1.443910	-0.067022	-0.027026	1.217258	-0.053670	-0.207081	1.096576	0.113954	-0.182580	1.064969	0.059557	-0.103957	1.121912	0.317113	-0.087621	1.161040	0.293846	-0.157504	1.359136	0.061994	-0.158193	1.129182	0.288880	-0.129829	1.141030	0.334128	-0.120293	1.164303	0.321653	-0.142392	1.166166	0.268844	-0.189062	1.204431	0.151817	-0.231674	1.218264	0.111372	-0.225038	1.281550	0.110079	-0.176631	1.277100	0.143293	0.094828	1.337785	0.058019	0.057084	1.292468	0.118304	0.057169	1.337278	0.081883	0.111462	1.292692	0.083434	0.027916	1.365680	0.013145	0.068034	1.161494	0.095631	-0.127227	1.345421	0.059475	0.049506	1.312344	0.107049
